Coordinates
nRows=4
nColumns=38

# SIMM Motion File Header:
name Coordinates
datacolumns 38
datarows 4
otherdata 1
range 1.91600000000000010000 1.91900000000000000000

Units are S.I. units (second, meters, Newtons, ...)
Angles are in degrees.

endheader
time	pelvis_tilt	pelvis_list	pelvis_rotation	pelvis_tx	pelvis_ty	pelvis_tz	hip_flexion_r	hip_adduction_r	hip_rotation_r	knee_angle_r	ankle_angle_r	subtalar_angle_r	mtp_angle_r	hip_flexion_l	hip_adduction_l	hip_rotation_l	knee_angle_l	ankle_angle_l	subtalar_angle_l	mtp_angle_l	lumbar_extension	lumbar_bending	lumbar_rotation	arm_flex_r	arm_add_r	arm_rot_r	elbow_flex_r	pro_sup_r	wrist_flex_r	wrist_dev_r	arm_flex_l	arm_add_l	arm_rot_l	elbow_flex_l	pro_sup_l	wrist_flex_l	wrist_dev_l
      1.91600000000000010000	     -9.23436028843471140000	      0.47862366879399371000	      1.41082826141038380000	      0.75310467087681254000	      1.01325657347531580000	     -0.32850834816276631000	     -8.00309106180824340000	     -1.87260418536529840000	    -12.16434525136088700000	    -77.19925791526094400000	    -15.84301711204427800000	      0.00000000000007136597	      0.00000000000007634835	     33.86227076634368400000	      2.51833523548750240000	     -1.60421868113046420000	     -8.67193043409089270000	    -13.30516006396109000000	     -0.00000000000002871425	     -0.00000000000000279400	      4.15485053577231510000	     -1.11405813990327180000	     10.91853098100308900000	    -10.68360610180126700000	    -19.10632147974277800000	     -0.63261208298571125000	     87.59089126109370200000	     80.29635056628197300000	      0.00000000000000991117	      0.00000000000004220053	    -40.46039822048773300000	    -41.82714728515762200000	     18.34561707260674600000	     88.69451240125721400000	     68.83087889155181900000	     -0.00000000000001138592	     -0.00000000000001312262
      1.91700000000000000000	     -9.18102141225495140000	      0.47332536943034859000	      1.46842563088513360000	      0.75299219000102668000	      1.01281470808211570000	     -0.32850651703832312000	     -7.84266175765882160000	     -1.90204765408354290000	    -12.19716367956914700000	    -77.91390030737773000000	    -15.80005903797457000000	      0.00000000000007172256	      0.00000000000007667731	     33.72726925685243100000	      2.53212817709771490000	     -1.80269927525715600000	     -8.64086153888502650000	    -13.39291165942858600000	     -0.00000000000002882070	     -0.00000000000000283107	      4.09774518971751170000	     -1.15661188782041700000	     10.80247131367213400000	    -10.74973615260822700000	    -19.09132088507016400000	     -0.55118388987261724000	     87.33293322180962500000	     80.13722115431583900000	      0.00000000000000993533	      0.00000000000004240858	    -40.17932891863372200000	    -41.86532447036260900000	     18.50376494259273100000	     88.68763541299371400000	     68.87597066458253900000	     -0.00000000000001144737	     -0.00000000000001323152
      1.91800000000000010000	     -9.12710107235531790000	      0.46989949302441969000	      1.52700783249188340000	      0.75287538183616565000	      1.01236531596350380000	     -0.32850947984178541000	     -7.68088360564479360000	     -1.93491606584726280000	    -12.23234506735291500000	    -78.62792605826723500000	    -15.75631016209149300000	      0.00000000000007207840	      0.00000000000007700828	     33.59574046515399500000	      2.54843966719810490000	     -2.00267392791240310000	     -8.62668887366505110000	    -13.47947770035895400000	     -0.00000000000002892655	     -0.00000000000000286989	      4.03949401744372590000	     -1.20088381617192350000	     10.68405807198319500000	    -10.81460115790243400000	    -19.07694339026952700000	     -0.46819083684856477000	     87.07177899513752100000	     79.98080665375985600000	      0.00000000000000995926	      0.00000000000004261547	    -39.89507340953188900000	    -41.90333646122831400000	     18.66453960391233500000	     88.68025421127380500000	     68.92208495304264200000	     -0.00000000000001150946	     -0.00000000000001334141
      1.91900000000000000000	     -9.07254893791727040000	      0.46834845268133468000	      1.58654694202246120000	      0.75275431898408207000	      1.01190854086217530000	     -0.32851722930967503000	     -7.51779861360836770000	     -1.97122973496283000000	    -12.26983770564736500000	    -79.34128775450363900000	    -15.71165705707543800000	      0.00000000000007243298	      0.00000000000007733929	     33.46741524527351400000	      2.56725782718287170000	     -2.20338698981534840000	     -8.62892649218594520000	    -13.56475968574512700000	     -0.00000000000002903509	     -0.00000000000000290818	      3.98002716077998460000	     -1.24686383435732910000	     10.56329786059515300000	    -10.87813675406867000000	    -19.06317993371589400000	     -0.38363288654124095000	     86.80744782579803600000	     79.82725189798192400000	      0.00000000000000998263	      0.00000000000004282230	    -39.60772081943727600000	    -41.94109302646276700000	     18.82785040159807700000	     88.67238534686566700000	     68.96911458207372900000	     -0.00000000000001157150	     -0.00000000000001345255
